<svg width="28" height="28" viewBox="0 0 28 28" fill="none" xmlns="http://www.w3.org/2000/svg">
<path d="M8.54508 22.449C10.4901 22.449 11.7911 23.176 12.3651 23.586C12.5761 23.703 13.1741 24.0545 13.3026 24.066V6.34801C12.5411 4.93001 10.3026 3.78201 7.98258 3.78201C5.05258 3.78201 2.56858 5.46951 2.01758 6.60601V23.153C2.01758 23.9265 2.47458 24.2195 3.02558 24.2195C3.47058 24.2195 3.76358 24.067 4.04508 23.8325C4.73658 23.2115 6.36508 22.449 8.54508 22.449ZM19.4671 22.4495C21.6466 22.4495 23.2641 23.2115 23.9671 23.8325C24.2361 24.055 24.5296 24.219 24.9746 24.219C25.5256 24.219 25.9826 23.9265 25.9826 23.153V6.60501C25.4316 5.46801 22.9591 3.78101 20.0291 3.78101C17.7091 3.78101 15.4706 4.92901 14.7091 6.34701V24.09C14.8381 24.078 15.4356 23.715 15.6581 23.586C16.2206 23.176 17.5216 22.4495 19.4671 22.4495Z" fill="#FDF7E0"/>
</svg>
