<svg width="29" height="28" viewBox="0 0 29 28" fill="none" xmlns="http://www.w3.org/2000/svg">
<path d="M23.2499 14C23.2499 13.7317 23.2382 13.475 23.2149 13.2067L25.3849 11.5617C25.8515 11.2117 25.9799 10.5583 25.6882 10.045L23.5065 6.27668C23.3666 6.02956 23.1404 5.84284 22.8712 5.7524C22.602 5.66196 22.3089 5.67416 22.0482 5.78668L19.5399 6.84834C19.1082 6.54501 18.6532 6.27668 18.1749 6.05501L17.8365 3.36001C17.7665 2.77668 17.2649 2.33334 16.6815 2.33334H12.3299C11.7349 2.33334 11.2332 2.77668 11.1632 3.36001L10.8249 6.05501C10.3465 6.27668 9.89152 6.54501 9.45985 6.84834L6.95152 5.78668C6.41485 5.55334 5.78485 5.76334 5.49319 6.27668L3.31152 10.0567C3.01985 10.57 3.14819 11.2117 3.61485 11.5733L5.78485 13.2183C5.7362 13.7422 5.7362 14.2695 5.78485 14.7933L3.61485 16.4383C3.14819 16.7883 3.01985 17.4417 3.31152 17.955L5.49319 21.7233C5.78485 22.2367 6.41485 22.4467 6.95152 22.2133L9.45985 21.1517C9.89152 21.455 10.3465 21.7233 10.8249 21.945L11.1632 24.64C11.2332 25.2233 11.7349 25.6667 12.3182 25.6667H16.6699C17.2532 25.6667 17.7549 25.2233 17.8249 24.64L18.1632 21.945C18.6415 21.7233 19.0965 21.455 19.5282 21.1517L22.0365 22.2133C22.5732 22.4467 23.2032 22.2367 23.4949 21.7233L25.6765 17.955C25.9682 17.4417 25.8399 16.8 25.3732 16.4383L23.2032 14.7933C23.2382 14.525 23.2499 14.2683 23.2499 14ZM14.5465 18.0833C12.2949 18.0833 10.4632 16.2517 10.4632 14C10.4632 11.7483 12.2949 9.91668 14.5465 9.91668C16.7982 9.91668 18.6299 11.7483 18.6299 14C18.6299 16.2517 16.7982 18.0833 14.5465 18.0833Z" fill="#FDF7E0"/>
</svg>
